<svg width="100" height="48" viewBox="0 0 100 48" fill="none" xmlns="http://www.w3.org/2000/svg">
<path d="M7.95021 47.6667C12.3335 47.6667 15.8919 44.1083 15.8919 39.725V31.7833H7.95021C3.56688 31.7833 0.00854492 35.3417 0.00854492 39.725C0.00854492 44.1083 3.56688 47.6667 7.95021 47.6667Z" fill="#0ACF83"/>
<path d="M0 23.8333C0 19.45 3.55833 15.8917 7.94167 15.8917H15.8833V31.7833H7.94167C3.55833 31.7833 0 28.225 0 23.8417V23.8333Z" fill="#A259FF"/>
<path d="M0 7.94167C0 3.55833 3.55833 0 7.94167 0H15.8833V15.8917H7.94167C3.55833 15.8917 0 12.3333 0 7.95V7.94167Z" fill="#F24E1E"/>
<path d="M15.8169 0H23.7586C28.1419 0 31.7002 3.55833 31.7002 7.94167C31.7002 12.325 28.1419 15.8833 23.7586 15.8833H15.8169V0Z" fill="#FF7262"/>
<path d="M31.7836 23.8333C31.7836 28.2167 28.2252 31.775 23.8419 31.775C19.4586 31.775 15.8169 28.2167 15.8169 23.8333C15.8169 19.45 19.3752 15.8917 23.7586 15.8917C28.1419 15.8917 31.7002 19.45 31.7002 23.8333H31.7836Z" fill="#1ABCFE"/>
<path d="M40.4668 13.1666V29.8166H42.6085V21.8666H47.7585V19.8H42.6085V15.25H49.3001V13.1666H40.4668ZM53.1751 16.55C53.9501 16.55 54.5751 15.925 54.5751 15.15C54.5751 14.375 53.9418 13.8333 53.1751 13.8333C52.4085 13.8333 51.7751 14.4583 51.7751 15.2333C51.7751 15.6083 51.9251 15.9583 52.1918 16.2333C52.4585 16.5083 52.8085 16.65 53.1918 16.65L53.1751 16.55ZM52.0918 18.65V29.8166H54.1501V18.65H52.0251H52.0918ZM62.1918 18.3166C59.3418 18.3166 57.3585 20.8166 57.3585 23.5833C57.3585 26.35 59.3585 28.8333 62.1918 28.8333C62.7814 28.8436 63.3666 28.7311 63.9103 28.503C64.4541 28.2749 64.9444 27.9362 65.3501 27.5083V28.9916C65.3442 29.8828 64.9984 30.7382 64.3835 31.3833C64.0728 31.7003 63.7019 31.952 63.2927 32.1237C62.8834 32.2954 62.444 32.3837 62.0001 32.3833C61.3186 32.3618 60.6582 32.1416 60.1001 31.75L59.0168 33.6083C59.8487 34.1433 60.8096 34.4441 61.7981 34.4789C62.7866 34.5138 63.7663 34.2814 64.6338 33.8062C65.5014 33.3311 66.2247 32.6308 66.7277 31.7791C67.2307 30.9274 67.4946 29.9558 67.4918 28.9666V18.6333H65.3501V19.6333C64.9444 19.2054 64.4541 18.8667 63.9103 18.6386C63.3666 18.4104 62.7814 18.298 62.1918 18.3083V18.3166ZM59.5085 23.5833C59.4597 23.0415 59.5633 22.4969 59.8078 22.0109C60.0522 21.525 60.4277 21.1171 60.8918 20.8333C61.8418 20.25 63.0335 20.25 63.9751 20.8333C64.9168 21.4166 65.4501 22.4833 65.3585 23.5833C65.4073 24.1251 65.3036 24.6697 65.0591 25.1557C64.8147 25.6416 64.4392 26.0495 63.9751 26.3333C63.0251 26.9166 61.8335 26.9166 60.8918 26.3333C59.9501 25.75 59.4168 24.6833 59.5085 23.5833Z" fill="black"/>
<path d="M75.2167 20.5C74.6007 20.5022 74.0106 20.7478 73.5751 21.1834C73.1395 21.6189 72.8939 22.209 72.8917 22.825V29.8916H70.75V18.725H72.8917V19.6666C73.5417 18.8 74.575 18.3 75.6583 18.3166C77.025 18.2833 78.3 19.0166 78.975 20.2083C79.8083 19.0416 81.0083 18.3333 82.3083 18.3166C84.75 18.3166 86.2667 20.2833 86.275 22.7166V29.825H84.1333V22.7416C84.1961 22.3004 84.1312 21.8504 83.9463 21.4449C83.7614 21.0394 83.4642 20.6953 83.0899 20.4534C82.7156 20.2115 82.2798 20.0818 81.8342 20.0797C81.3885 20.0776 80.9515 20.2032 80.575 20.4416C80.2005 20.6858 79.9041 21.0323 79.7209 21.44C79.5377 21.8478 79.4755 22.2996 79.5417 22.7416V29.8083H77.4833V22.75C77.4811 22.134 77.2355 21.5439 76.7999 21.1084C76.3644 20.6728 75.7743 20.4272 75.1583 20.425L75.2167 20.5ZM97.7167 19.9166C97.2292 19.408 96.6428 19.0044 95.9937 18.7307C95.3445 18.4569 94.6462 18.3189 93.9417 18.325C90.75 18.325 88.525 21.025 88.525 24.1583C88.525 27.2916 90.775 29.9916 93.9417 29.9916C94.6462 29.9977 95.3445 29.8597 95.9937 29.586C96.6428 29.3122 97.2292 28.9086 97.7167 28.4V29.6666H99.8583V18.5H97.7167V19.9166ZM90.6333 24.25C90.525 22.9166 91.175 21.6333 92.3167 20.9333C93.4583 20.2333 94.8167 20.2333 96.0333 20.9333C96.5906 21.2792 97.0422 21.7713 97.339 22.3561C97.6358 22.941 97.7665 23.596 97.7167 24.25C97.825 25.5833 97.175 26.8666 96.0333 27.5666C94.8917 28.2666 93.5333 28.2666 92.3167 27.5666C91.7594 27.2208 91.3078 26.7286 91.011 26.1438C90.7142 25.559 90.5835 24.9039 90.6333 24.25Z" fill="black"/>
</svg>
