<svg width="78" height="78" viewBox="0 0 78 78" fill="none" xmlns="http://www.w3.org/2000/svg">
<path d="M57.5 2H20.5C10.2827 2 2 10.2827 2 20.5V57.5C2 67.7173 10.2827 76 20.5 76H57.5C67.7173 76 76 67.7173 76 57.5V20.5C76 10.2827 67.7173 2 57.5 2Z" stroke="black" stroke-width="4" stroke-linecap="round" stroke-linejoin="round"/>
<path d="M53.7998 36.669C54.2564 39.7483 53.7304 42.8932 52.2967 45.6563C50.863 48.4195 48.5944 50.6602 45.8138 52.0598C43.0332 53.4593 39.882 53.9465 36.8086 53.4519C33.7352 52.9574 30.8959 51.5063 28.6947 49.3051C26.4935 47.1039 25.0424 44.2646 24.5478 41.1912C24.0533 38.1177 24.5404 34.9666 25.94 32.186C27.3396 29.4053 29.5803 27.1368 32.3434 25.7031C35.1066 24.2693 38.2515 23.7434 41.3308 24.2C44.4718 24.6658 47.3797 26.1294 49.6251 28.3747C51.8704 30.62 53.334 33.528 53.7998 36.669Z" stroke="black" stroke-width="4" stroke-linecap="round" stroke-linejoin="round"/>
<path d="M59.35 18.65H59.387" stroke="black" stroke-width="4" stroke-linecap="round" stroke-linejoin="round"/>
</svg>
