<svg width="72" height="68" viewBox="0 0 72 68" fill="none" xmlns="http://www.w3.org/2000/svg">
<path d="M49.1579 22.2105C54.5181 22.2105 59.6587 24.3398 63.4489 28.1301C67.2391 31.9203 69.3684 37.0609 69.3684 42.4211V66H55.8948V42.4211C55.8948 40.6343 55.185 38.9208 53.9216 37.6574C52.6582 36.394 50.9446 35.6842 49.1579 35.6842C47.3712 35.6842 45.6577 36.394 44.3942 37.6574C43.1308 38.9208 42.4211 40.6343 42.4211 42.4211V66H28.9474V42.4211C28.9474 37.0609 31.0767 31.9203 34.8669 28.1301C38.6571 24.3398 43.7977 22.2105 49.1579 22.2105V22.2105Z" stroke="black" stroke-width="4" stroke-linecap="round" stroke-linejoin="round"/>
<path d="M15.4737 25.5789H2V66H15.4737V25.5789Z" stroke="black" stroke-width="4" stroke-linecap="round" stroke-linejoin="round"/>
<path d="M8.73684 15.4737C12.4575 15.4737 15.4737 12.4575 15.4737 8.73684C15.4737 5.01619 12.4575 2 8.73684 2C5.01619 2 2 5.01619 2 8.73684C2 12.4575 5.01619 15.4737 8.73684 15.4737Z" stroke="black" stroke-width="4" stroke-linecap="round" stroke-linejoin="round"/>
</svg>
