<svg width="200" height="200" viewBox="0 0 200 200" fill="none" xmlns="http://www.w3.org/2000/svg">
<path fill-rule="evenodd" clip-rule="evenodd" d="M18.401 14.716L126.316 7.09236C139.568 6.00206 142.978 6.73247 151.306 12.5365L185.754 35.7626C191.438 39.7565 193.333 40.8438 193.333 45.1977V172.583C193.333 180.566 190.301 185.288 179.702 186.01L54.3803 193.269C46.4236 193.633 42.6367 192.546 38.4699 187.462L13.1021 155.888C8.55696 150.076 6.66664 145.728 6.66664 140.642L6.66663 27.4132C6.66663 20.8847 9.69926 15.4387 18.401 14.716Z" fill="white"/>
<path fill-rule="evenodd" clip-rule="evenodd" d="M45.1314 44.772C50.5996 49.1575 52.6511 48.8229 62.9197 48.1466L159.726 42.4088C161.779 42.4088 160.072 40.387 159.387 40.051L143.309 28.5782C140.229 26.2174 136.124 23.5137 128.259 24.1901L34.5211 30.9388C31.1024 31.2733 30.4196 32.9606 31.781 34.3129L45.1314 44.772ZM50.9435 67.0416V167.584C50.9435 172.988 53.679 175.009 59.8359 174.675L166.225 168.598C172.386 168.264 173.072 164.547 173.072 160.158V60.2898C173.072 55.9075 171.364 53.5442 167.594 53.8815L56.4149 60.2898C52.3117 60.6302 50.9435 62.6561 50.9435 67.0416ZM26.6506 21.8295L124.153 14.7419C136.126 13.7282 139.207 14.4073 146.732 19.8033L177.857 41.3965C182.992 45.1097 184.704 46.1206 184.704 50.1684V168.598C184.704 176.02 181.964 180.41 172.387 181.082L59.1583 187.831C51.9694 188.169 48.548 187.158 44.7832 182.431L21.8631 153.078C17.7565 147.674 16.0486 143.632 16.0486 138.903L16.0486 33.6342C16.0486 27.5646 18.7886 22.5015 26.6506 21.8295Z" fill="black"/>
</svg>
