<svg width="118" height="26" viewBox="0 0 118 26" fill="none" xmlns="http://www.w3.org/2000/svg">
<g clip-path="url(#clip0_9_228)">
<path d="M29.3921 18V6.80001H30.9441L36.0321 15.632V6.80001H37.4081V18H35.8561L30.7841 9.20001V18H29.3921ZM39.533 13.968C39.5116 12.8373 39.869 11.856 40.605 11.024C41.3516 10.192 42.2903 9.78668 43.421 9.80801C44.5516 9.78668 45.485 10.192 46.221 11.024C46.957 11.856 47.3143 12.8373 47.293 13.968C47.3143 15.0987 46.957 16.08 46.221 16.912C45.485 17.744 44.5516 18.1493 43.421 18.128C42.2903 18.1493 41.3516 17.744 40.605 16.912C39.869 16.08 39.5116 15.0987 39.533 13.968ZM45.229 16.08C45.6876 15.4933 45.917 14.7893 45.917 13.968C45.917 13.1467 45.6876 12.448 45.229 11.872C44.781 11.2853 44.1783 10.992 43.421 10.992C42.6636 10.992 42.0556 11.2853 41.597 11.872C41.1383 12.448 40.909 13.1467 40.909 13.968C40.909 14.7893 41.1383 15.4933 41.597 16.08C42.0556 16.656 42.6636 16.944 43.421 16.944C44.1783 16.944 44.781 16.656 45.229 16.08ZM49.5049 15.536V11.12H48.1449V9.93601H49.5049V7.52001L50.8329 6.67201V9.93601H52.9929V11.12H50.8329V15.632C50.8329 16.5067 51.2062 16.944 51.9529 16.944C52.3049 16.944 52.6142 16.8693 52.8809 16.72L53.2169 17.84C52.8329 18.032 52.3742 18.128 51.8409 18.128C51.1049 18.128 50.5289 17.9093 50.1129 17.472C49.7075 17.0347 49.5049 16.3893 49.5049 15.536ZM54.7939 18V9.93601H56.1219V18H54.7939ZM54.4899 7.61601C54.4899 7.33868 54.5805 7.10934 54.7619 6.92801C54.9539 6.74668 55.1832 6.65601 55.4499 6.65601C55.7272 6.65601 55.9565 6.74668 56.1379 6.92801C56.3299 7.10934 56.4259 7.33868 56.4259 7.61601C56.4259 7.89334 56.3299 8.12268 56.1379 8.30401C55.9565 8.48534 55.7272 8.57601 55.4499 8.57601C55.1832 8.57601 54.9539 8.48534 54.7619 8.30401C54.5805 8.11201 54.4899 7.88268 54.4899 7.61601ZM58.0486 13.968C58.0273 12.8373 58.3846 11.856 59.1206 11.024C59.8673 10.192 60.8059 9.78668 61.9366 9.80801C63.0673 9.78668 64.0006 10.192 64.7366 11.024C65.4726 11.856 65.8299 12.8373 65.8086 13.968C65.8299 15.0987 65.4726 16.08 64.7366 16.912C64.0006 17.744 63.0673 18.1493 61.9366 18.128C60.8059 18.1493 59.8673 17.744 59.1206 16.912C58.3846 16.08 58.0273 15.0987 58.0486 13.968ZM63.7446 16.08C64.2033 15.4933 64.4326 14.7893 64.4326 13.968C64.4326 13.1467 64.2033 12.448 63.7446 11.872C63.2966 11.2853 62.6939 10.992 61.9366 10.992C61.1793 10.992 60.5713 11.2853 60.1126 11.872C59.6539 12.448 59.4246 13.1467 59.4246 13.968C59.4246 14.7893 59.6539 15.4933 60.1126 16.08C60.5713 16.656 61.1793 16.944 61.9366 16.944C62.6939 16.944 63.2966 16.656 63.7446 16.08ZM67.747 18V9.93601H69.075V11.488C69.363 10.976 69.7416 10.5707 70.211 10.272C70.691 9.96268 71.203 9.80801 71.747 9.80801C72.515 9.80801 73.1176 10.0373 73.555 10.496C74.003 10.944 74.227 11.5733 74.227 12.384V18H72.915V12.672C72.915 11.552 72.419 10.992 71.427 10.992C70.755 10.992 70.195 11.3173 69.747 11.968C69.299 12.6187 69.075 13.4827 69.075 14.56V18H67.747ZM77.15 16.928C76.4886 16.128 76.158 15.1413 76.158 13.968C76.158 12.7947 76.4886 11.808 77.15 11.008C77.8113 10.208 78.7126 9.80801 79.854 9.80801C81.55 9.80801 82.6753 10.56 83.23 12.064L82.046 12.528C81.63 11.504 80.8993 10.992 79.854 10.992C79.118 10.992 78.5473 11.264 78.142 11.808C77.7366 12.352 77.534 13.072 77.534 13.968C77.534 14.864 77.7366 15.584 78.142 16.128C78.5473 16.672 79.118 16.944 79.854 16.944C80.8673 16.944 81.598 16.432 82.046 15.408L83.23 15.872C82.6433 17.376 81.518 18.128 79.854 18.128C78.7126 18.128 77.8113 17.728 77.15 16.928ZM85.0439 18V6.67201H86.3719V11.552C86.6279 11.008 87.0065 10.5813 87.5079 10.272C88.0092 9.96268 88.5532 9.80801 89.1399 9.80801C89.9399 9.80801 90.5585 10.032 90.9959 10.48C91.4332 10.9173 91.6519 11.552 91.6519 12.384V18H90.3399V12.704C90.3399 11.5627 89.8332 10.992 88.8199 10.992C88.1372 10.992 87.5559 11.3173 87.0759 11.968C86.6065 12.6187 86.3719 13.488 86.3719 14.576V18H85.0439ZM100.875 13.616V14.176H94.9395C94.9715 15.008 95.1955 15.68 95.6115 16.192C96.0381 16.6933 96.6035 16.944 97.3075 16.944C97.8515 16.944 98.2995 16.8213 98.6515 16.576C99.0035 16.3307 99.3235 15.9307 99.6115 15.376L100.731 15.856C100.347 16.6453 99.8781 17.2213 99.3235 17.584C98.7795 17.9467 98.0968 18.128 97.2755 18.128C96.1661 18.128 95.2755 17.728 94.6035 16.928C93.9315 16.1173 93.5955 15.1307 93.5955 13.968C93.5955 12.784 93.9315 11.7973 94.6035 11.008C95.2755 10.208 96.1661 9.80801 97.2755 9.80801C98.3635 9.80801 99.2328 10.1707 99.8835 10.896C100.545 11.6213 100.875 12.528 100.875 13.616ZM95.0195 13.04H99.5315C99.4355 12.4 99.1901 11.8987 98.7955 11.536C98.4115 11.1733 97.9048 10.992 97.2755 10.992C96.7101 10.992 96.2248 11.1733 95.8195 11.536C95.4248 11.888 95.1581 12.3893 95.0195 13.04ZM103.353 16.928C102.692 16.128 102.361 15.1413 102.361 13.968C102.361 12.7947 102.692 11.808 103.353 11.008C104.014 10.208 104.916 9.80801 106.057 9.80801C107.753 9.80801 108.878 10.56 109.433 12.064L108.249 12.528C107.833 11.504 107.102 10.992 106.057 10.992C105.321 10.992 104.75 11.264 104.345 11.808C103.94 12.352 103.737 13.072 103.737 13.968C103.737 14.864 103.94 15.584 104.345 16.128C104.75 16.672 105.321 16.944 106.057 16.944C107.07 16.944 107.801 16.432 108.249 15.408L109.433 15.872C108.846 17.376 107.721 18.128 106.057 18.128C104.916 18.128 104.014 17.728 103.353 16.928ZM111.247 18V6.67201H112.575V13.376L115.695 9.93601H117.343L113.935 13.632L117.599 18H115.951L112.575 13.904V18H111.247Z" fill="black"/>
<path fill-rule="evenodd" clip-rule="evenodd" d="M1.37746 1.08712L14.0452 0.0574897C15.6009 -0.0897628 16.0012 0.00888467 16.9788 0.792759L21.0226 3.9296C21.6898 4.46901 21.9122 4.61586 21.9122 5.20388V22.4081C21.9122 23.4863 21.5562 24.124 20.3121 24.2216L5.60096 25.202C4.66695 25.2512 4.22242 25.1043 3.73329 24.4177L0.75544 20.1534C0.221901 19.3684 1.47665e-06 18.7812 1.41316e-06 18.0943L0 2.80197C-8.14813e-08 1.92024 0.355991 1.18472 1.37746 1.08712Z" fill="white"/>
<path fill-rule="evenodd" clip-rule="evenodd" d="M4.51526 5.14634C5.15716 5.73862 5.39797 5.69344 6.60337 5.60209L17.9671 4.82717C18.2082 4.82717 18.0078 4.55411 17.9273 4.50873L16.0401 2.95925C15.6785 2.6404 15.1966 2.27526 14.2733 2.36661L3.26975 3.27806C2.86844 3.32325 2.78829 3.55112 2.9481 3.73377L4.51526 5.14634ZM5.19752 8.154V21.733C5.19752 22.4628 5.51863 22.7358 6.24137 22.6906L18.7301 21.8699C19.4533 21.8248 19.5339 21.3228 19.5339 20.73V7.24213C19.5339 6.65026 19.3333 6.33109 18.8907 6.37664L5.83979 7.24213C5.35813 7.2881 5.19752 7.56172 5.19752 8.154ZM2.34586 2.0478L13.7914 1.09056C15.1968 0.953656 15.5585 1.04537 16.4419 1.77414L20.0955 4.69046C20.6982 5.19195 20.8992 5.32848 20.8992 5.87515V21.8699C20.8992 22.8723 20.5776 23.4652 19.4534 23.5559L6.16183 24.4675C5.31795 24.5131 4.91632 24.3766 4.47438 23.7382L1.78386 19.7738C1.30181 19.0439 1.10132 18.498 1.10132 17.8593V3.64209C1.10132 2.82236 1.42297 2.13855 2.34586 2.0478Z" fill="black"/>
</g>
<defs>
<clipPath id="clip0_9_228">
<rect width="118" height="26" fill="white"/>
</clipPath>
</defs>
</svg>
