<svg width="79" height="66" viewBox="0 0 79 66" fill="none" xmlns="http://www.w3.org/2000/svg">
<path d="M77 2.03428C73.7354 4.33704 70.1208 6.09829 66.2955 7.25019C64.2423 4.88943 61.5136 3.21619 58.4785 2.45676C55.4434 1.69733 52.2483 1.88836 49.3253 3.00401C46.4023 4.11966 43.8924 6.1061 42.1352 8.69468C40.3779 11.2833 39.4581 14.3491 39.5 17.4775V20.8866C33.509 21.0419 27.5725 19.7132 22.2193 17.0188C16.8662 14.3243 12.2624 10.3478 8.81818 5.44337C8.81818 5.44337 -4.81818 36.1252 25.8636 49.7616C18.8427 54.5273 10.4789 56.917 2 56.5797C32.6818 73.6252 70.1818 56.5797 70.1818 17.3752C70.1787 16.4256 70.0874 15.4784 69.9091 14.5456C73.3884 11.1144 75.8437 6.78217 77 2.03428V2.03428Z" stroke="black" stroke-width="4" stroke-linecap="round" stroke-linejoin="round"/>
</svg>
