<svg width="218" height="17" viewBox="0 0 218 17" fill="none" xmlns="http://www.w3.org/2000/svg">
<path fill-rule="evenodd" clip-rule="evenodd" d="M78.8562 6.02014C102.045 4.02544 123.812 3.31998 144.819 3.17851C101.514 0.911244 57.8964 1.63085 14.7866 5.32318C38.4364 6.33043 58.0014 6.36721 78.8562 6.02014ZM10.9503 16.3068C10.7486 15.8032 11.1823 15.2854 11.9169 15.1468C28.0738 12.1212 43.4781 9.82849 58.2692 8.10446C40.7797 8.0988 22.8442 7.73192 1.27133 6.55679C0.569815 6.51812 0.0243473 6.12673 0.000871541 5.64762C-0.0239852 5.16757 0.485578 4.7526 1.18019 4.68281C53.795 -0.58171 107.288 -1.41072 160.175 2.21277C160.899 2.26275 161.434 2.68433 161.419 3.17192C172.124 3.22757 182.673 3.38413 193.15 3.5388C200.849 3.65292 208.81 3.77081 216.638 3.84437C217.398 3.85097 218.005 4.27538 218 4.79315C217.994 5.31187 217.379 5.73062 216.619 5.73062C170.401 5.73062 137.312 6.54736 110.725 7.20283C99.4803 7.48105 89.1357 7.73664 79.0922 7.90357C58.2457 9.70117 36.2517 12.5447 12.6474 16.967C12.5245 16.9887 12.4016 17 12.2815 17C11.6753 17 11.1187 16.7256 10.9503 16.3068Z" fill="white"/>
</svg>
