<svg width="218" height="17" viewBox="0 0 218 17" fill="none" xmlns="http://www.w3.org/2000/svg">
<path fill-rule="evenodd" clip-rule="evenodd" d="M78.8561 6.02014C102.045 4.02544 123.812 3.31998 144.819 3.17851C101.514 0.911244 57.8963 1.63085 14.7865 5.32318C38.4363 6.33043 58.0013 6.36721 78.8561 6.02014ZM10.9502 16.3068C10.7486 15.8032 11.1822 15.2854 11.9168 15.1468C28.0737 12.1212 43.478 9.82849 58.2691 8.10446C40.7796 8.0988 22.8441 7.73192 1.27123 6.55679C0.569718 6.51812 0.0242504 6.12673 0.000774616 5.64762C-0.0240821 5.16757 0.485481 4.7526 1.18009 4.68281C53.7949 -0.58171 107.288 -1.41072 160.175 2.21277C160.898 2.26275 161.434 2.68433 161.419 3.17192C172.124 3.22757 182.673 3.38413 193.15 3.5388C200.849 3.65292 208.81 3.77081 216.638 3.84437C217.398 3.85097 218.005 4.27538 218 4.79315C217.994 5.31187 217.378 5.73062 216.619 5.73062C170.401 5.73062 137.312 6.54736 110.725 7.20283C99.4802 7.48105 89.1356 7.73664 79.0921 7.90357C58.2456 9.70117 36.2516 12.5447 12.6473 16.967C12.5244 16.9887 12.4015 17 12.2814 17C11.6752 17 11.1186 16.7256 10.9502 16.3068Z" fill="black"/>
</svg>
