<svg width="432" height="107" viewBox="0 0 432 107" fill="none" xmlns="http://www.w3.org/2000/svg">
<path d="M73.125 22.1875L68 51.25H52.625L53.8125 39.1875L56.5 19.875H73.125V22.1875ZM49.9375 41.5L49.4375 46.625L48 49.4375V50.6875L47 52.125L46.75 52.625V54.0625L46.125 52.125L43.6875 53V52.625L43.1875 51.25H30.875L30.375 52.625V53L28.9375 51.25H25.625L23.4375 54.0625H22.6875V49.4375L24.0625 46.625L23.4375 44.8125L22.6875 43.8125H21L20.5 44.8125L21.9375 55.3125L21.5 55.8125H21L20.5 52.125L6.0625 51.25L5.25 49.8125L4.375 44.8125L3.875 43.8125L3.125 44.0625L2.5625 42.625L3.125 41.125L3.625 40.1875L0.9375 23.5625L0.5625 22.1875V20.375L12.3125 19.875L12.8125 18.9375L15 19.5L17.1875 20.375L18.5625 23.0625L18.8125 27.6875L19.375 38.8125L20.25 41.5L21.9375 41.125L23.4375 38.3125H24.375L25.25 35.5L27.0625 27.0625L28.0625 24.1875L28.4375 21L30.5 19.375L33.0625 19.875L37.125 19.375L39.4375 19.5L42 19.875L43.4375 20.75L46.375 37.375L46.75 38.3125H47.75L48 37.375V36.875H48.5625V40.1875L49.9375 41.5ZM66.5625 58.625L60.3125 95L43.4375 95.375L42.25 92.6875L37.9375 58.125L38.3125 57.625L39.8125 58.625L42.875 58.125H44.5625L49.4375 59.0625L50.1875 64.5625H50.4375L51.375 60.9375L51.875 59.5625L54.9375 59.0625H60.8125L66.5625 58.625ZM35.75 58.125L30.625 94.5L30.125 95.375H25.625L25.125 78.875L24.375 71.9375V71.4375L24.0625 70.5625H23.1875L22.4375 72.875V76.0625L23.8125 78L22.4375 80.6875V95L14.25 95.375H13.4375L9.625 75.6875L9.375 75.1875H8.5L9 72.5L7.1875 59.5625V58.625L12.8125 58.125L13.4375 57.625L15.625 58.625H21.5L22.4375 60.4375V64.125H24.875L25.375 63.25L25.125 58.625L35.75 58.125ZM47.25 40.1875V39.1875H47V40.1875H47.25ZM48.5625 45.1875V44.8125H48L48.25 45.75L48.5625 45.1875ZM25.375 48V47.125H25.125V48H25.375ZM23.1875 66.8125V65.9375H22.6875V66.8125H23.1875ZM71 21.625H70.75V20.25H71V21.625ZM123.25 94.25L86 95.125L85 93.3125V91.4375L84.4375 90.5L82.1875 95.125H79.875L78.8125 93.3125V91.4375L78.3125 90.5H76.9375L76.375 90.125L78.5625 89.625L77.9375 87.8125H78.3125L78.8125 86.9375L78.5625 81.5625H76.9375L76.375 81.9375V79.625H77.6875L77.9375 80.125H78.3125L78.8125 79.25L78.5625 69.25L77.9375 68.375L78.8125 65.1875L79.0625 57V54.6875L78.5625 52.875L77.6875 54.3125L77.1875 52.875L77.4375 51.625V50.6875L77.1875 50.1875L75.875 52V50.1875L77.4375 49.3125L77.6875 48.8125L77.4375 47.875H76.9375V47H77.4375V47.875L77.6875 48.8125L78.3125 47.5V46.125L77.6875 44.6875H76.125L75.875 43.4375V41.625L77.4375 40.75L76.375 38.4375L76.9375 37.9375L78.3125 39.3125H78.5625V36.125L76.9375 34.3125H77.1875L77.4375 33.8125V33.4375L77.1875 32.9375H76.125V31.125L75.875 30.75L77.9375 32.9375V35.25L78.3125 35.75L78.8125 34.3125V31.625L77.6875 30.25H78.3125V27.5625L77.1875 25.25H76.9375L75.875 28.4375H75.625L75.375 27.9375V26.125L76.125 24.875V22.9375L75.375 21.625V20.75L77.9375 17.9375H92.25L92.8125 19.875L123.25 20.75V37.9375L96 38.4375L95.625 39.3125V48.5625L96 49.9375H121.312L121.562 52.625V54.0625L93.0625 54.4375L92.5 55.8125V57.25L93.0625 58.5L98.3125 58.125H104.438L121.312 58.5L121.562 65.1875L120.812 66.5625H96L95.625 67.875V76.0625L96 76.9375H123L123.25 94.25ZM73.0625 38.4375H72.8125V37H73.0625V38.4375ZM75.625 47H75.375V46.125H75.625V47ZM76.9375 57.875L76.125 56.0625H76.375L76.9375 57V57.875ZM75.875 54.3125L74.625 57V57.875L72.5625 56.0625V55.1875L73.3125 55.6875L74.875 54.3125H75.875ZM76.9375 62.5H74.375L73.0625 60.5625L74.375 61.5625H76.375L76.9375 62.5ZM71.25 64.25L71 63.375H71.25V64.25ZM74.875 79.625H74.375V78.75H74.875V79.625ZM74.875 90.5H74.625V89.625H74.875V90.5ZM78.5625 50.1875V49.3125H78.3125V50.1875H78.5625ZM83.4375 55.1875V54.6875L83.1875 54.3125H82.1875V55.6875H83.1875L83.4375 55.1875ZM84.4375 59.6875V58.375H83.9375V59.6875H84.4375ZM80.875 56.0625V55.6875H80.375L80.625 57L80.875 56.0625ZM84.4375 64.25V63.375L83.4375 62.875V65.1875L84.4375 64.25ZM84.75 67.875V66.5625H84.4375V67.875H84.75ZM83.4375 67.875V66.5625H83.1875V67.875H83.4375ZM84.4375 70.5625V69.25H83.9375V70.5625H84.4375ZM85.25 80.125V79.625H84.4375L83.6875 79.25V77.4375L84.4375 76.0625H85.25V74.25L85 73.75H83.4375L83.6875 77.4375L83.1875 78.75V81.9375L83.6875 84.25V89.625L83.9375 88.75L84.75 86.0625L83.6875 81.5625L85.25 80.125ZM185.25 40.375L184.125 42.25H183.875L184.375 39.4375H185L185.25 39.9375V40.375ZM183.875 53.25H183.625V52H183.875V53.25ZM131.25 1.0625H131V0H131.25V1.0625ZM131.5 7.0625H131.25V4.75H131.5V7.0625ZM185 33.9375L181.188 34.8125L180.812 44.9375L179.5 49.1875L175.438 54.6875L171.312 57.5L165.562 58.375H164.125L128.188 57V40.875L129.312 37.125H129.875L130.125 36.625V35.25L128.438 33.9375L129.875 33.4375H131L131.25 32.5625L130.75 29.75L131 26.875V25.5L130.75 25.125L129.312 26.5H128.438L128.188 26.875L129.312 29.1875L127.688 33.9375L126.5 34.3125L126.25 16.8125L128.438 15.375L129.312 9.375H129.625L130.125 12.0625L130.75 14.875H131L131.5 20H131.75L132.688 15.75H132.938L133.188 20L163 20.5H164.438L165.188 19.5V16.8125L166.875 14L168.5 15.75L168.75 20.875L174.5 23.1875L178.375 26.875L180.562 32V33.4375L181.188 34.3125L183.875 33.9375H185ZM186.938 89.875H186.562L186.062 84.375L186.938 89.5V89.875ZM184.125 87.0625H183.875V86.1875H184.125V87.0625ZM190.375 95.875L190.125 96.4375L188.5 94.5L188.25 95H187.438L188.5 90.375L189.125 90.75L190.375 95.5V95.875ZM184.125 93.1875L183.625 90.75L183.875 89.5H184.125V91.8125L183.625 95.5H182.438L182.188 95V93.1875L183.875 93.5625L184.125 93.1875ZM188.875 99.25L187.438 100.5H186.562V99.25H188.875ZM180.312 101L176.188 101.938L176.688 99.25L180.312 100.125V101ZM184.125 79.25L182.438 82.4375L182.188 84.75L182.688 86.1875L183.875 83.875L183.375 86.6875H181.938L180 90.375V91.8125L177.875 92.1875L177.312 93.1875L178.375 95.875L175.062 96.4375L174.5 98.1875L173.75 97.3125L173.5 98.1875L174 101.5L172.875 99.25V95.875L172.375 95L165.562 95.5L164.438 98.1875V96.4375L160.312 95.5H131.75L131.25 84.375L131 83.875H130.125L129.625 90.75L129.312 93.1875V95L129.062 72.75L128.188 67.75L128.438 62.625L162.5 62.125L162.75 61.75L168.5 62.125H169.688L177.875 61.75L180 62.625L182.438 68.625L183.625 76.4375L184.125 77.875V79.25ZM162.75 42.625V39.4375L162 37.125L160.312 35.25L151 34.8125V50.0625H151.25L159.188 49.1875L160.562 43.5625L162.75 42.625ZM127.938 32V29.75H127.688L127.938 32ZM131.25 39.9375V39.4375L131 35.25L129.875 40.375H131L131.25 39.9375ZM164.438 73.75L163 67.25H162.5L162.25 76.9375L162 76.4375L161.062 72.75L160.812 65.8125L160.312 64.9375H151V81.5625L151.25 82.0625L161.312 81.0625L163.875 78.375L164.438 73.75ZM131.25 46L130.75 44.9375V43.5625L129.625 44.9375V46.375L129.875 50.5625L129.312 52H130.125L130.75 51.5L131 49.1875L130.125 47.25L131.25 46ZM130.125 53.8125H129.312H130.125ZM130.125 68.125V67.25H129.875V68.125H130.125ZM131 79.75L130.75 81.0625L131 79.25L130.125 76.4375L131 79.75ZM162.75 78.75L162.5 76.9375L162.75 77.875V78.75ZM250.5 34.4375H249.938L250.25 32.6875H250.5V34.4375ZM249.188 46.25L248.688 44.8125H249.188V46.25ZM246.625 50.1875H246.125V49.3125H246.625V50.1875ZM245.375 34.4375L245.125 48.9375L244.562 50.1875V52.125L244.062 46.25L243.812 45.3125H243.062L242.562 57H209L208.25 55.1875L206.188 57H204.125L204.625 53L204.125 51.625V43.9375L203.875 43.4375L205.188 39.4375V28.5625L204.375 26.25V20.875L210 20.375L218.25 39.8125L220 43.9375L221.062 46.25V47.5L224.625 55.6875L225.875 55.1875L227.188 53V20.875L236.938 20.375L238.188 18.1875L238.438 16.4375L242 16.8125L242.312 17.3125L242.812 19.5L244.312 17.6875L245.375 25.875L244.562 27.6875L245.375 34.4375ZM202.875 56.0625L190.562 57.5L189.312 56.625V54.6875L190.312 49.3125L190.812 44.4375V38.5625L189.812 36.75V35.375L190.562 33.9375L191.312 20.375H202.062L202.625 50.6875V54.3125L202.875 54.8125V56.0625ZM242.812 94.125L225.375 95L218.5 80L212.312 65.1875L214.875 64.25L217.438 62.875L219.25 63.75L220.5 62.875H224.625L226.125 65.1875L232.812 63.75L235.875 65.1875L236.625 63.375L242.312 62.5H242.812V94.125ZM188.75 46.625L188.5 47.125H188.25V46.25H188.75V46.625ZM207.188 94.125L206.188 95H205.438L204.375 93.1875V62.5L206.938 65.1875L207.188 94.125ZM202.375 94.125L191.875 95L190.812 93.1875L191.312 61.5625H202.062L202.375 93.5625V94.125ZM259.688 14.875L259.438 15.25H259V13.4375H259.688V14.875ZM257 14.875H255.812L256.062 12.0625L257 13.4375V14.875ZM255.562 17.9375H255.312V17.0625H255.562V17.9375ZM251.375 19.375L250.438 16.125L251.062 13.4375L250.438 10.75L251.375 12.0625V19.375ZM249.188 23.4375H248.938V22.5625H249.188V23.4375ZM247.25 25.75L246.25 26.125L245.062 28.4375V28.8125H244.562L244.062 25.25V19.875L245.688 20.25H246.25L246 20.75V22.5625L247.25 24.375V25.75ZM310.125 48.8125L291 49.3125L287.062 39.3125L282.938 36.125L277.875 36.625L274.625 38.4375L271.938 41.625L269.25 50.1875V54.3125L265.062 54.6875L264.125 52H263.875L263.375 54.6875H252.625L252.125 55.6875V56.0625L252.625 57.5L256.312 57.875L257 57.5L262.625 57.875L263.625 58.75V69.25L263.875 69.625H264.125L264.375 57.875H268.5L268.75 57.5H269L269.75 65.5625L271.438 71.9375L274.125 76.5625L276.812 77.875L284.625 77.4375L287.562 74.625L290 66.9375L290.75 66.0625H309.562L307.438 79.25L304.188 86.0625L299.875 91.4375L294.5 95.125L289.125 96.4375L272.5 96.9375L271.438 96L268.25 95.5L265.312 93.75L265.062 88.75L264.375 72.5H263.625L262.875 74.25L263.625 77.875L262.875 84.25L263.625 86.9375L262.625 92.4375L258 88.375L254.312 81.9375L251.062 67.875V61.0625L250.688 60.5625L249.438 62.5V57.875L250.438 52L249.688 48.8125L248.938 46.625V45.1875H249.688L250.438 44.3125L249.688 41.625H251.062L251.375 42H251.625L252.875 37.9375V35.25L254.812 32.9375L255.562 30.75H254.062L251.062 32.5625L250.688 36.125L249.188 38.4375H245.688L246.5 36.125L244.562 35.25L244.312 34.3125V33.4375L246.5 32.9375L248.375 30.25L250.688 31.125L252.375 27.9375V26.125L253.125 24.875L254.812 27.0625L256.062 24.375L256.312 23.4375L258 27.0625L263.375 21.625L262.875 17.0625L264.375 21.625L267.375 19.375L270.438 18.8125L276.562 17.5625H285.125L291 18.8125L298.812 22.5625L302.812 27.0625L307.188 35.25L309.312 43.8125L310.125 48.8125ZM248 56.0625L247.75 57H246.75V52.5H247.5L248 55.1875V56.0625ZM265.312 38.6875V26H264.125V38.6875H265.312ZM265.062 47V46.125H264.375V47H265.062ZM353.625 14.875H353.125V14H353.625V14.875ZM373.188 56.5L368.562 57L368.062 55.1875L364.125 57H355.125L354.375 55.5625V51.5L352.812 43.8125L350.938 39.3125L346.312 35.75H341.812L338.625 37.9375L338.25 38.4375L338 19.875L352.188 18.9375V17.5625L356.812 21.625L362.688 25.25L367.312 30.75L370.5 37.5L373.188 49.6875L372.438 54.3125L373.188 55.5625V56.5ZM331.312 16.6875H331.062V15.75H331.312V16.6875ZM351.188 48.4375H350.938V47H351.188V48.4375ZM363.688 62H363.438V60.5625H363.688V62ZM336.438 19.375L335.938 21.625L334.25 22.5625L332.625 27.9375L335.062 36.125L334.812 45.5625L333.25 57H315.188V49.6875L317.375 37.9375L320.812 30.25L326.5 23.9375L328.375 22.5625L328.875 21.625L331.062 21.125L331.562 19.875H336.188L336.438 19.375ZM350.375 67.375H349.875V66.0625H350.375V67.375ZM330.062 62.875L329.688 63.25H329.438V62H329.688L330.062 62.375V62.875ZM374.5 66.0625L373.938 70.5625L371.25 79.625L370.75 84.625L370 87.3125V90.875L370.75 92.6875V93.5625L368.062 94.5L365.625 97.3125L364.125 101.375V101.812L361.938 95L360.25 96.4375V92.3125L351.438 95.875V100L351.938 104.5V106.25L350.375 106.75H349.25L348.75 96.4375L335.062 95.5L326.5 90.875L322 86.4375L317.625 78.25L315.438 68.25L315.188 63.25V62H323.812L324.688 64.6875L325.688 62.875L327.875 64.6875L329.438 65.0625H330.312L331.312 62.375V63.75L331.875 65.0625H332.125L333.25 62H333.5L335.312 71.9375L336.438 74.125L337.5 77.3125H339.125L341.562 79.625H346.312L350.688 76.4375H353.625L354.375 75.5625V63.25L354.625 62.875L355.812 64.6875L357.062 62.875L357.562 62L359.25 63.75H360.5L361.688 62.375L363.438 63.75H364.375L365.375 62L368.062 60.5625H368.312L368.812 64.6875H369.125L370 62L370.5 63.75L372.062 62.875L372.438 63.25L373.688 62.375L374.5 66.0625ZM370.25 49.6875V48.8125H370L369.75 49.6875H370.25ZM337.75 80.9375V79.625H337.5V80.9375H337.75ZM337.75 92.3125V90.5L337.5 85.5H336.938L336.688 86.4375L336.438 90.875L337.5 92.6875L337.75 92.3125ZM410.688 16.9375H410.438V15.625H410.688V16.9375ZM429.875 42.25L422.312 43.1875L422.062 43.6875L412.812 43.1875L411.812 39.1875L411.188 38.6875L410.938 36.125L407.875 33.4375H401.688L399.938 35.625L399.125 37.8125L399.375 41.375L401.688 44.5625L404.625 45.875L405.438 44.5625L406.188 46.25L408.625 46.75L409.125 45.875H412.062L410.125 46.75V47.625L414.125 49.8125L415.688 48.5625L418.625 47.625H419.625L417.562 49.8125V51.25L419.875 51.625L420.625 52.875L422.312 52.5V52.875L423.062 54.3125H423.625V48.9375H424.625L423.875 50.3125L424.375 52.125L426.562 54.3125L383.688 54.6875L382.5 54.3125L380.688 48.5625V37L382 31.625L385.688 25.875L390.688 22.3125L400.188 20.125H407.875L408.625 19.25L407.875 16.5625H408.625V18.3125L410.688 20.125H414.875L415.938 18.3125H417.062L417.312 20.125L418.375 21.9375L423.625 24.5L427.812 30.25L429.625 36.5L429.875 41V42.25ZM431.812 76.4375L429.375 84L424.875 89.875L419.875 92.9375L418.875 95.125L417.562 94.25L414.125 94.75L413.375 97.4375L412.562 95.125L410.438 97.4375V96.5625L409.625 95.125H395.438L386.75 91.5625L383.375 87.5625L380.688 81.4375L379.688 73.875L380.188 70.6875L398.625 71.1875L399.375 70.3125L397.875 65.4375L396.438 63.125L392.25 62.25L392 61.875L396.438 60.9375L397 59.6875L397.875 61.875H398.125L398.625 60.4375L398.375 59.1875V58.25H399.375L400.688 60.9375L408.125 60.4375L410.438 57.375L410.938 58.25H412.562L413.375 60.0625L414.125 60.4375H415.125L416.562 58.25H417.562V60.0625L418.062 60.4375H418.875L419.875 57.375H422.062L422.812 59.6875L425.125 57.375L426.812 57.875L428.562 59.6875L431.25 66.3125L431.5 76.0625L431.812 76.4375ZM423.625 65.4375V64.5625H423.312V65.4375H423.625ZM409.625 66.3125V65.4375H409.375V66.3125H409.625ZM414.125 86.3125V85.8125L412.812 81.4375L412.312 76.9375L410.938 73.375L411.188 71.5625L410.125 69.8125L411.188 76.4375L412.562 79.625L413.375 84L414.125 86.3125ZM401.688 69.8125V68.5L400.688 65.8125H399.688L399.125 67.25L401.688 69.8125ZM408.625 80.5625V79.125H408.125V80.5625H408.625ZM405.938 81.4375L404.938 79.125H404.375V81.8125H405.438L405.938 81.4375ZM402.625 79.625V74.25H402.375L401.688 71.1875H400.188L399.125 73L398.625 72.5V75.5625L400.188 79.625L402.375 80.9375V80.5625L402.625 79.625Z" fill="black"/>
</svg>
